{"title":"Julian Casablancas - 11th Dimension [Music Video] 720p [Sbyky]","uid":9922169,"size":56214047,"categoryP":"video","categoryS":"music_videos","magnet":"?xt=urn:btih:e8c72e26155c53b492ff940566c0f153132f78dc&amp;dn=Julian+Casablancas+-+11th+Dimension+%5BMusic+Video%5D+720p+%5BSbyky%5D&amp;tr=udp%3A%2F%2Ftracker.openbittorrent.com%3A80&amp;tr=udp%3A%2F%2Fopen.demonii.com%3A1337&amp;tr=udp%3A%2F%2Ftracker.coppersurfer.tk%3A6969&amp;tr=udp%3A%2F%2Fexodus.desync.com%3A6969","seeders":1,"leechers":0,"uploader":"Sbyky","files":1,"time":1397010827,"description":"\n\nGeneral\nComplete name                            : Julian Casablancas - 11th Dimension [Music Video] 720p [Sbyky].MP4\nFormat                                   : MPEG-4\nFormat profile                           : Base Media\nCodec ID                                 : isom\nFile size                                : 53.6 MiB\nDuration                                 : 4mn 32s\nOverall bit rate mode                    : Variable\nOverall bit rate                         : 1 651 Kbps\nEncoded date                             : UTC 2013-12-10 13:54:37\nTagged date                              : UTC 2013-12-10 13:54:37\n\nVideo\nID                                       : 1\nFormat                                   : AVC\nFormat/Info                              : Advanced Video Codec\nFormat profile                           : &lt;a class=&quot;__cf_email__&quot; href=&quot;/cdn-cgi/l/email-protection&quot; data-cfemail=&quot;e2af838b8ca2aed1ccd3&quot;&gt;[email&amp;#160;protected]&lt;/a&gt;&lt;script cf-hash='f9e31' type=&quot;text/javascript&quot;&gt;\n/* &lt;![CDATA[ */!function(){try{var t=&quot;currentScript&quot;in document?document.currentScript:function(){for(var t=document.getElementsByTagName(&quot;script&quot;),e=t.length;e--;)if(t[e].getAttribute(&quot;cf-hash&quot;))return t[e]}();if(t&amp;&amp;t.previousSibling){var e,r,n,i,c=t.previousSibling,a=c.getAttribute(&quot;data-cfemail&quot;);if(a){for(e=&quot;&quot;,r=parseInt(a.substr(0,2),16),n=2;a.length-n;n+=2)i=parseInt(a.substr(n,2),16)^r,e+=String.fromCharCode(i);e=document.createTextNode(e),c.parentNode.replaceChild(e,c)}}}catch(u){}}();/* ]]&gt; */&lt;/script&gt;\nFormat settings, CABAC                   : Yes\nFormat settings, ReFrames                : 3 frames\nCodec ID                                 : avc1\nCodec ID/Info                            : Advanced Video Coding\nDuration                                 : 4mn 32s\nBit rate                                 : 1 523 Kbps\nWidth                                    : 1 280 pixels\nHeight                                   : 720 pixels\nDisplay aspect ratio                     : 16:9\nFrame rate mode                          : Constant\nFrame rate                               : 24.000 fps\nColor space                              : YUV\nChroma subsampling                       : 4:2:0\nBit depth                                : 8 bits\nScan type                                : Progressive\nBits/(Pixel*Frame)                       : 0.069\nStream size                              : 49.4 MiB (92%)\nEncoded date                             : UTC 2013-12-10 13:54:37\nTagged date                              : UTC 2013-12-10 13:54:37\n\nAudio\nID                                       : 2\nFormat                                   : AAC\nFormat/Info                              : Advanced Audio Codec\nFormat profile                           : LC\nCodec ID                                 : 40\nDuration                                 : 4mn 32s\nBit rate mode                            : Variable\nBit rate                                 : 126 Kbps\nChannel(s)                               : 2 channels\nChannel positions                        : Front: L R\nSampling rate                            : 44.1 KHz\nCompression mode                         : Lossy\nStream size                              : 4.08 MiB (8%)\nEncoded date                             : UTC 2013-12-10 13:54:22\nTagged date                              : UTC 2013-12-10 13:54:22\n\nShared By Sbyky\n","torrent":{"xt":"urn:btih:e8c72e26155c53b492ff940566c0f153132f78dc","amp;dn":"Julian+Casablancas+-+11th+Dimension+%5BMusic+Video%5D+720p+%5BSbyky%5D","amp;tr":["udp%3A%2F%2Ftracker.openbittorrent.com%3A80","udp%3A%2F%2Fopen.demonii.com%3A1337","udp%3A%2F%2Ftracker.coppersurfer.tk%3A6969","udp%3A%2F%2Fexodus.desync.com%3A6969"],"infoHash":"e8c72e26155c53b492ff940566c0f153132f78dc","infoHashBuffer":{"type":"Buffer","data":[232,199,46,38,21,92,83,180,146,255,148,5,102,192,241,83,19,47,120,220]},"announce":[],"urlList":[]}}